# xmcd
#
# Track frame offsets:
#	150
#	21155
#	36910
#	53753
#	70900
#	87920
#	105443
#	122408
#	137923
#	154545
#
# Disc length: 2389 seconds
#
# Revision: 1
# Processed by: cddbd v1.5.2PL0 Copyright (c) Steve Scherf et al.
# Submitted via: dBpowerAMP V4.0
#
DISCID=7a09530a
DTITLE=Pierre Schott - Le Nouveau Monde
DYEAR=1992
DGENRE=Chanson
TTITLE0=A la Nouvelle-Orléans
TTITLE1=Le long chemin
TTITLE2=Je te voudrais quand même
TTITLE3=Mille ans de solitude
TTITLE4=I Feel Like Running Away
TTITLE5=Rosanna Azalée
TTITLE6=Traverser la rivière
TTITLE7=La chanson de Mathusalem
TTITLE8=Le vieux navire
TTITLE9=The Corn and Tobacco Fields
EXTD=
EXTT0=
EXTT1=
EXTT2=
EXTT3=
EXTT4=
EXTT5=
EXTT6=
EXTT7=
EXTT8=
EXTT9=
PLAYORDER=
